<svg height="496pt" viewBox="0 0 496 496" width="496pt" xmlns="http://www.w3.org/2000/svg"><g fill="#cf9e76"><path d="m488 88.398438c0 4.242187-3.28125 7.839843-7.601562 8.082031l-136.398438 9.121093v-20.800781l135.601562-4.5625c4.558594-.078125 8.398438 3.601563 8.398438 8.160157zm0 0"/><path d="m344 44 136.558594 11.359375c4.242187.402344 7.441406 3.921875 7.441406 8.082031 0 4.636719-3.921875 8.398438-8.558594 8.160156l-135.441406-6.800781zm0 0"/><path d="m248 36v24l-240-12v-32zm0 0"/><path d="m248 88v24l-240 16v-32zm0 0"/></g><path d="m384 448v40h-176v-40c13.679688 5.199219 28.480469 8 43.921875 8h88.15625c15.441406 0 30.242187-2.800781 43.921875-8zm0 0" fill="#838f9b"/><path d="m226.878906 293.359375c1.601563.082031 3.121094.242187 4.722656.320313 20.160157 1.519531 41.839844 2.320312 64.398438 2.320312 24.320312 0 47.679688-.960938 69.121094-2.640625 13.679687-1.121094 26.640625-2.558594 38.640625-4.238281 15.839843-2.242188 29.917969-4.960938 41.839843-8.082032 14.398438-3.679687 25.679688-8 32.957032-12.640624l-8.238282 24.5625c-1.839843 5.519531-3.28125 11.117187-4.242187 16.800781l-2.078125-.402344c-34 11.121094-86.960938 18.640625-168 18.640625-58.398438 0-123.199219-4.078125-168-18.71875l-2.078125.398438c-1.042969-5.679688-2.402344-11.28125-4.242187-16.71875l-8.160157-24.480469c8.242188 5.199219 21.519531 10 38.640625 14.078125 20.238282 4.722656 45.761719 8.402344 74.71875 10.800781zm0 0" fill="#fcd770"/><path d="m128 309.28125c44.800781 14.640625 109.601562 18.71875 168 18.71875 81.039062 0 134-7.519531 168-18.640625l2.078125.402344c-1.359375 7.359375-2.078125 14.796875-2.078125 22.316406 0 34.242187-13.839844 65.203125-36.320312 87.601563-12.320313 12.320312-27.121094 22.082031-43.679688 28.320312-13.679688 5.199219-28.480469 8-43.921875 8h-88.15625c-15.441406 0-30.242187-2.800781-43.921875-8-46.800781-17.679688-80-62.878906-80-115.921875 0-7.519531-.71875-15.039063-2.078125-22.398437zm0 0" fill="#e6e9ed"/><path d="m400 248c-9.839844 0-18.960938 2.960938-26.558594 8l-1.601562 2.078125c-9.359375-7.039063-20.078125-13.277344-32.078125-17.917969l4.238281-.160156v-22.71875c82.800781 4.398438 144 20.078125 144 38.71875 0 4.320312-3.28125 8.480469-9.441406 12.398438-7.277344 4.640624-18.558594 8.960937-32.957032 12.640624l-.320312-1.039062c-6.640625-18.640625-24.402344-32-45.28125-32zm0 0" fill="#ccd1d9"/><path d="m248 240 .320312.71875c-10.640624 4-20.160156 9.359375-28.558593 15.28125l-1.601563 1.761719c-7.039062-6.082031-16.160156-9.761719-26.160156-9.761719-19.359375 0-35.519531 13.761719-39.199219 32l-.640625 2.558594c-17.121094-4.078125-30.398437-8.878906-38.640625-14.078125-6.160156-3.921875-9.519531-8.160157-9.519531-12.480469 0-18.640625 61.199219-34.320312 144-38.71875zm0 0" fill="#ccd1d9"/><path d="m445.28125 280 .320312 1.039062c-11.921874 3.121094-26 5.839844-41.839843 8.082032-8.160157-10.082032-18.800781-21.28125-31.921875-31.042969l1.601562-2.078125c7.597656-5.039062 16.71875-8 26.558594-8 20.878906 0 38.640625 13.359375 45.28125 32zm0 0" fill="#ed5565"/><path d="m232 288c0 .398438 0 .71875-.078125 1.121094-2.082031 1.679687-3.761719 3.117187-5.042969 4.238281-28.957031-2.398437-54.480468-6.078125-74.71875-10.800781l.640625-2.558594c3.679688-18.238281 19.839844-32 39.199219-32 10 0 19.121094 3.679688 26.160156 9.761719 8.480469 7.277343 13.839844 18.160156 13.839844 30.238281zm0 0" fill="#ed5565"/><path d="m312 233.039062c9.921875 1.28125 19.199219 3.761719 27.761719 7.121094 12 4.640625 22.71875 10.878906 32.078125 17.917969 13.121094 9.761719 23.761718 20.960937 31.921875 31.042969-12 1.679687-24.960938 3.117187-38.640625 4.238281-8.722656-7.679687-36.242188-29.359375-69.121094-29.359375-28.078125 0-52.160156 15.761719-64.078125 25.121094.078125-.402344.078125-.722656.078125-1.121094 0-12.078125-5.359375-22.960938-13.839844-30.238281l1.601563-1.761719c8.398437-5.921875 17.917969-11.28125 28.558593-15.28125 9.601563-3.757812 20.160157-6.480469 31.757813-7.839844 5.121094-.558594 10.402344-.878906 15.921875-.878906s10.878906.398438 16 1.039062zm0 0" fill="#fcd770"/><path d="m296 264c32.878906 0 60.398438 21.679688 69.121094 29.359375-21.441406 1.679687-44.800782 2.640625-69.121094 2.640625-22.558594 0-44.238281-.800781-64.398438-2.320312.238282-1.519532.320313-3.039063.320313-4.558594 11.917969-9.359375 36-25.121094 64.078125-25.121094zm0 0" fill="#ffeaa7"/><path d="m328 8h-64c-8.800781 0-16 7.199219-16 16v216l.320312.71875c9.601563-3.757812 20.160157-6.480469 31.757813-7.839844 5.121094-.558594 10.402344-.878906 15.921875-.878906s10.878906.398438 16 1.039062c9.921875 1.28125 19.199219 3.761719 27.761719 7.121094l4.238281-.160156v-216c0-8.800781-7.199219-16-16-16zm0 0" fill="#fcd770"/><path d="m422.015625 350.273438 15.625 3.460937c1.253906-5.679687 2.023437-11.535156 2.269531-17.382813l-15.980468-.6875c-.210938 4.910157-.851563 9.832032-1.914063 14.609376zm0 0"/><path d="m343.664062 415.929688.671876 15.980468c38.238281-1.597656 72.679687-25.453125 87.71875-60.773437l-14.71875-6.265625c-12.640626 29.664062-41.550782 49.703125-73.671876 51.058594zm0 0"/><path d="m480.945312 104.488281c8.445313-.558593 15.054688-7.632812 15.054688-16.097656 0-4.40625-1.742188-8.519531-4.910156-11.582031-.347656-.328125-.746094-.578125-1.113282-.863282.335938-.273437.703126-.496093 1.015626-.800781 3.175781-3.023437 5.007812-7.289062 5.007812-11.671875 0-8.320312-6.496094-15.367187-14.785156-16.066406l-129.214844-10.765625v-12.640625c0-13.230469-10.769531-24-24-24h-64c-13.230469 0-24 10.769531-24 24v3.304688l-240-20v48.304687l240 12v12.65625l-240 8v48.285156l240-16v89.167969c-42.046875 2.6875-144 12.707031-144 46.28125 0 6.503906 3.902344 12.167969 10.617188 17.121094l7.4375 22.335937c3.945312 11.839844 5.945312 24.175781 5.945312 36.648438 0 54.308593 33.007812 101.023437 80 121.222656v42.671875h192v-42.671875c46.992188-20.191406 80-66.914063 80-121.222656 0-12.480469 2-24.808594 5.945312-36.648438l7.445313-22.34375c6.707031-4.953125 10.609375-10.617187 10.609375-17.113281 0-33.574219-101.953125-43.59375-144-46.28125v-96.640625zm-128.945312-7.433593v-4.496094l127.886719-4.03125zm54.984375 183.425781c-6.0625-7.214844-13.175781-14.65625-21.375-21.695313 4.566406-1.769531 9.40625-2.785156 14.390625-2.785156 14.191406 0 27.0625 7.59375 34.199219 19.425781-8.03125 1.789063-17.101563 3.503907-27.214844 5.054688zm-19.160156 2.542969c-6.359375.753906-13.082031 1.417968-20.089844 2.023437-11.550781-9.648437-38.839844-29.046875-71.734375-29.046875-23.304688 0-43.777344 9.753906-57.871094 18.871094-1.679687-5.886719-4.457031-11.304688-8.097656-16.039063 19.6875-12.457031 41.824219-18.832031 65.96875-18.832031 40.921875 0 71.425781 21.40625 91.824219 43.023438zm-164.128907 1.976562c-24.480468-2.128906-45.015624-5.199219-61.503906-8.65625 4.730469-12.054688 16.511719-20.34375 29.808594-20.34375 16.617188 0 30.160156 12.777344 31.695312 29zm119 1.785156c-14.480468.757813-29.976562 1.214844-46.695312 1.214844s-32.214844-.457031-46.695312-1.214844c12.046874-7.402344 28.597656-14.785156 46.695312-14.785156s34.648438 7.382812 46.695312 14.785156zm9.304688-213.578125 39.832031 1.992188-39.832031 1.328125zm127.871094-9.621093-127.871094-6.394532v-4.480468zm-143.871094-39.585938v206.34375c-5.121094-1.664062-10.464844-3.015625-16-4.054688v-210.289062h8c4.414062 0 8 3.59375 8 8zm-72-8h8v128h16v-128h16v208.296875c-2.632812-.152344-5.28125-.296875-8-.296875-2.695312 0-5.34375.152344-8 .289062v-64.289062h-16v66.007812c-5.441406.902344-10.777344 2.128907-16 3.65625v-205.664062c0-4.40625 3.585938-8 8-8zm-248 24.390625v-15.695313l224 18.664063v8.234375zm0 79.058594v-15.714844l224-7.460937v8.246093zm224 106.34375v9.6875c-7.640625 3.335937-15.007812 7.390625-22.089844 12.175781-7.484375-4.824219-16.367187-7.65625-25.910156-7.65625-20.71875 0-38.855469 13.488281-45.351562 32.710938-22.953126-6.070313-34.648438-12.582032-34.648438-16.710938 0-6.6875 37.105469-24.398438 128-30.207031zm136 254.207031h-160v-21.097656c11.433594 3.242187 23.441406 5.097656 35.886719 5.097656h88.21875c12.453125 0 24.460937-1.855469 35.886719-5.097656v21.097656zm-35.886719-32h-88.226562c-63.894531 0-115.886719-51.992188-115.886719-115.894531 0-4.144531-.257812-8.265625-.640625-12.371094 38.496094 10.753906 92.320313 16.265625 160.640625 16.265625 68.640625 0 122.457031-5.496094 160.632812-16.207031-.386718 4.085937-.632812 8.183593-.632812 12.3125 0 63.902343-51.992188 115.894531-115.886719 115.894531zm122.664063-157.609375c-1.3125 3.929687-2.371094 7.90625-3.304688 11.921875-36.878906 11.71875-91.785156 17.6875-163.472656 17.6875-71.289062 0-126.207031-5.984375-163.480469-17.71875-.925781-4-1.992187-7.96875-3.296875-11.882812l-2.34375-7.039063c26.097656 9.570313 65.074219 15.128906 102.480469 18.015625l.289063.289062c.015624-.015624.152343-.144531.253906-.25 24.007812 1.832032 47.328125 2.585938 66.097656 2.585938s42.089844-.753906 66.097656-2.585938c.101563.105469.246094.234376.253906.25l.289063-.289062c37.40625-2.886719 76.382813-8.4375 102.480469-18.015625zm17.222656-34.390625c0 3.816406-10.144531 9.6875-29.847656 15.359375-9.320313-18.953125-28.664063-31.359375-50.152344-31.359375-10.113281 0-19.855469 2.816406-28.488281 7.9375-6.039063-4.136719-12.558594-7.914062-19.511719-11.226562v-10.917969c90.894531 5.808593 128 23.519531 128 30.207031zm0 0"/></svg>